# Blender v2.78 (sub 0) OBJ File: 'bubble.blend'
# www.blender.org
o Sphere
v -0.382683 0.923880 0.000000
v -0.707107 0.707107 0.000000
v -0.923880 0.382683 0.000000
v -1.000000 -0.000000 0.000000
v -0.923880 -0.382684 0.000000
v -0.707107 -0.707107 0.000000
v -0.382683 -0.923880 0.000000
v -0.353553 0.923880 -0.146447
v -0.653281 0.707107 -0.270598
v -0.853553 0.382683 -0.353553
v -0.923880 -0.000000 -0.382683
v -0.853553 -0.382684 -0.353553
v -0.653281 -0.707107 -0.270598
v -0.353553 -0.923880 -0.146447
v -0.270598 0.923880 -0.270598
v -0.500000 0.707107 -0.500000
v -0.653281 0.382683 -0.653281
v -0.707107 -0.000000 -0.707107
v -0.653281 -0.382684 -0.653281
v -0.500000 -0.707107 -0.500000
v -0.270598 -0.923880 -0.270598
v -0.000000 -1.000000 0.000000
v -0.146447 0.923880 -0.353553
v -0.270598 0.707107 -0.653281
v -0.353553 0.382683 -0.853553
v -0.382683 -0.000000 -0.923879
v -0.353553 -0.382684 -0.853553
v -0.270598 -0.707107 -0.653281
v -0.146447 -0.923880 -0.353553
v -0.000000 0.923880 -0.382683
v -0.000000 0.707107 -0.707107
v -0.000000 0.382683 -0.923879
v -0.000000 -0.000000 -1.000000
v -0.000000 -0.382684 -0.923879
v -0.000000 -0.707107 -0.707107
v -0.000000 -0.923880 -0.382683
v 0.146446 0.923880 -0.353553
v 0.270598 0.707107 -0.653281
v 0.353553 0.382683 -0.853553
v 0.382683 -0.000000 -0.923879
v 0.353553 -0.382684 -0.853553
v 0.270598 -0.707107 -0.653281
v 0.146446 -0.923880 -0.353553
v -0.000000 1.000000 0.000000
v 0.270598 0.923880 -0.270598
v 0.500000 0.707107 -0.500000
v 0.653281 0.382683 -0.653281
v 0.707107 -0.000000 -0.707106
v 0.653281 -0.382684 -0.653281
v 0.500000 -0.707107 -0.500000
v 0.270598 -0.923880 -0.270598
v 0.353553 0.923880 -0.146446
v 0.653281 0.707107 -0.270598
v 0.853553 0.382683 -0.353553
v 0.923879 -0.000000 -0.382683
v 0.853553 -0.382684 -0.353553
v 0.653281 -0.707107 -0.270598
v 0.353553 -0.923880 -0.146446
v 0.382683 0.923880 0.000000
v 0.707106 0.707107 0.000000
v 0.923879 0.382683 0.000000
v 1.000000 -0.000000 0.000000
v 0.923879 -0.382684 0.000000
v 0.707106 -0.707107 0.000000
v 0.382683 -0.923880 0.000000
v 0.353553 0.923880 0.146447
v 0.653281 0.707107 0.270598
v 0.853553 0.382683 0.353554
v 0.923879 -0.000000 0.382684
v 0.853553 -0.382684 0.353554
v 0.653281 -0.707107 0.270598
v 0.353553 -0.923880 0.146447
v 0.270598 0.923880 0.270598
v 0.499999 0.707107 0.500000
v 0.653281 0.382683 0.653282
v 0.707106 -0.000000 0.707107
v 0.653281 -0.382684 0.653282
v 0.499999 -0.707107 0.500000
v 0.270598 -0.923880 0.270598
v 0.146446 0.923880 0.353553
v 0.270597 0.707107 0.653281
v 0.353553 0.382683 0.853553
v 0.382683 -0.000000 0.923879
v 0.353553 -0.382684 0.853553
v 0.270597 -0.707107 0.653281
v 0.146446 -0.923880 0.353553
v -0.000000 0.923880 0.382683
v -0.000000 0.707107 0.707106
v -0.000001 0.382683 0.923879
v -0.000001 -0.000000 1.000000
v -0.000001 -0.382684 0.923879
v -0.000000 -0.707107 0.707106
v -0.000000 -0.923880 0.382683
v -0.146447 0.923880 0.353553
v -0.270598 0.707107 0.653281
v -0.353554 0.382683 0.853553
v -0.382684 -0.000000 0.923879
v -0.353554 -0.382684 0.853553
v -0.270598 -0.707107 0.653281
v -0.146447 -0.923880 0.353553
v -0.270598 0.923880 0.270598
v -0.500000 0.707107 0.499999
v -0.653282 0.382683 0.653281
v -0.707107 -0.000000 0.707106
v -0.653282 -0.382684 0.653281
v -0.500000 -0.707107 0.499999
v -0.270598 -0.923880 0.270598
v -0.353553 0.923880 0.146446
v -0.653281 0.707107 0.270598
v -0.853553 0.382683 0.353553
v -0.923880 -0.000000 0.382683
v -0.853553 -0.382684 0.353553
v -0.653281 -0.707107 0.270598
v -0.353553 -0.923880 0.146446
vt 0.4814 0.2325
vt 0.4519 0.2913
vt 0.4416 0.2410
vt 0.5091 0.3656
vt 0.4606 0.3333
vt 0.5004 0.3240
vt 0.5464 0.5100
vt 0.4835 0.4234
vt 0.5195 0.4155
vt 0.4165 0.1603
vt 0.4547 0.1379
vt 0.4918 0.2824
vt 0.4703 0.3748
vt 0.4658 0.6056
vt 0.5009 0.5022
vt 0.3390 0.0714
vt 0.4013 0.2490
vt 0.3837 0.1740
vt 0.4109 0.3000
vt 0.4308 0.3854
vt 0.4658 0.5029
vt 0.4199 0.3431
vt 0.4458 0.4333
vt 0.3901 0.3980
vt 0.4357 0.5099
vt 0.3521 0.1809
vt 0.3605 0.2551
vt 0.3775 0.3539
vt 0.4085 0.4462
vt 0.3681 0.3083
vt 0.3204 0.1811
vt 0.3173 0.2578
vt 0.3317 0.3661
vt 0.3713 0.4635
vt 0.3218 0.3159
vt 0.3474 0.4138
vt 0.4089 0.5229
vt 0.3338 0.4876
vt 0.2697 0.2557
vt 0.2878 0.1739
vt 0.2801 0.3808
vt 0.2693 0.3224
vt 0.3008 0.4349
vt 0.3853 0.5424
vt 0.2145 0.2459
vt 0.2545 0.1574
vt 0.2181 0.3999
vt 0.2057 0.3271
vt 0.2479 0.4649
vt 0.3658 0.5693
vt 0.2957 0.5220
vt 0.3533 0.6047
vt 0.2218 0.1281
vt 0.1222 0.3281
vt 0.1474 0.2223
vt 0.1374 0.4274
vt 0.2584 0.5724
vt 0.1848 0.5111
vt 0.0001 0.3193
vt 0.0627 0.1714
vt 0.0200 0.4719
vt 0.2275 0.6485
vt 0.1943 0.0808
vt 0.1058 0.5889
vt 0.3530 0.6485
vt 0.6480 0.0001
vt 0.7423 0.0760
vt 0.6476 0.0438
vt 0.9800 0.1764
vt 0.8157 0.1372
vt 0.8945 0.0597
vt 0.9375 0.4761
vt 0.8781 0.3198
vt 0.9999 0.3286
vt 0.8063 0.5665
vt 0.6620 0.5760
vt 0.7788 0.5193
vt 0.5354 0.0427
vt 0.7731 0.0001
vt 0.8629 0.2207
vt 0.8530 0.4254
vt 0.7527 0.1833
vt 0.7947 0.3208
vt 0.7462 0.4901
vt 0.6351 0.0791
vt 0.7050 0.1264
vt 0.7824 0.2482
vt 0.7861 0.4019
vt 0.6157 0.1059
vt 0.6999 0.2133
vt 0.6670 0.1606
vt 0.7206 0.2673
vt 0.7129 0.4737
vt 0.7310 0.3921
vt 0.7313 0.3255
vt 0.6789 0.3320
vt 0.6690 0.2819
vt 0.6804 0.4666
vt 0.6834 0.3900
vt 0.5920 0.1253
vt 0.6534 0.2343
vt 0.6295 0.1846
vt 0.5653 0.1382
vt 0.6107 0.2501
vt 0.6327 0.3396
vt 0.6487 0.4669
vt 0.5924 0.2019
vt 0.6233 0.2941
vt 0.6404 0.3928
vt 0.5900 0.3479
vt 0.6173 0.4737
vt 0.5352 0.1452
vt 0.5701 0.2626
vt 0.5551 0.2147
vt 0.5809 0.3049
vt 0.5995 0.3988
vt 0.5002 0.1458
vt 0.5306 0.2732
vt 0.5174 0.2246
vt 0.5490 0.3567
vt 0.5402 0.3147
vt 0.5845 0.4875
vt 0.5593 0.4069
vn -0.7188 -0.6952 0.0000
vn -0.8567 -0.3743 -0.3548
vn -0.6641 -0.6952 -0.2751
vn -0.9273 0.3743 0.0000
vn -0.9239 0.0000 -0.3827
vn -1.0000 0.0000 0.0000
vn -0.4031 0.9152 0.0000
vn -0.6641 0.6952 -0.2751
vn -0.7188 0.6952 0.0000
vn -0.3724 -0.9152 -0.1542
vn -0.4031 -0.9152 0.0000
vn -0.9273 -0.3743 0.0000
vn -0.8567 0.3743 -0.3548
vn 0.0000 1.0000 0.0000
vn -0.3724 0.9152 -0.1542
vn 0.0000 -1.0000 0.0000
vn -0.5083 -0.6952 -0.5083
vn -0.2850 -0.9152 -0.2850
vn -0.6557 -0.3743 -0.6557
vn -0.6557 0.3743 -0.6557
vn -0.2850 0.9152 -0.2850
vn -0.7071 0.0000 -0.7071
vn -0.5083 0.6952 -0.5083
vn -0.3548 0.3743 -0.8567
vn -0.1542 0.9152 -0.3724
vn -0.1542 -0.9152 -0.3724
vn -0.2751 -0.6952 -0.6641
vn -0.3827 0.0000 -0.9239
vn -0.2751 0.6952 -0.6641
vn -0.3548 -0.3743 -0.8567
vn 0.0000 -0.9152 -0.4031
vn 0.0000 -0.6952 -0.7188
vn 0.0000 0.0000 -1.0000
vn 0.0000 0.6952 -0.7188
vn 0.0000 -0.3743 -0.9273
vn 0.0000 0.3743 -0.9273
vn 0.0000 0.9152 -0.4031
vn 0.2751 0.6952 -0.6641
vn 0.2751 -0.6952 -0.6641
vn 0.1542 -0.9152 -0.3724
vn 0.3827 0.0000 -0.9239
vn 0.3548 -0.3743 -0.8567
vn 0.3548 0.3743 -0.8567
vn 0.1542 0.9152 -0.3724
vn 0.5083 -0.6952 -0.5083
vn 0.2850 -0.9152 -0.2850
vn 0.7071 0.0000 -0.7071
vn 0.6557 -0.3743 -0.6557
vn 0.6557 0.3743 -0.6557
vn 0.2850 0.9152 -0.2850
vn 0.5083 0.6952 -0.5083
vn 0.3724 0.9152 -0.1542
vn 0.3724 -0.9152 -0.1542
vn 0.8567 -0.3743 -0.3548
vn 0.6641 -0.6952 -0.2751
vn 0.9239 0.0000 -0.3827
vn 0.6641 0.6952 -0.2751
vn 0.8567 0.3743 -0.3548
vn 0.9273 -0.3743 0.0000
vn 0.7188 -0.6952 0.0000
vn 1.0000 0.0000 0.0000
vn 0.7188 0.6952 0.0000
vn 0.4031 -0.9152 0.0000
vn 0.9273 0.3743 0.0000
vn 0.4031 0.9152 0.0000
vn 0.6641 -0.6952 0.2751
vn 0.3724 -0.9152 0.1542
vn 0.8567 -0.3743 0.3548
vn 0.8567 0.3743 0.3548
vn 0.3724 0.9152 0.1542
vn 0.9239 0.0000 0.3827
vn 0.6641 0.6952 0.2751
vn 0.6557 -0.3743 0.6557
vn 0.6557 0.3743 0.6557
vn 0.2850 0.9152 0.2850
vn 0.2850 -0.9152 0.2850
vn 0.5083 -0.6952 0.5083
vn 0.7071 0.0000 0.7071
vn 0.5083 0.6952 0.5083
vn 0.1542 -0.9152 0.3724
vn 0.3548 -0.3743 0.8567
vn 0.2751 -0.6952 0.6641
vn 0.3827 0.0000 0.9239
vn 0.1542 0.9152 0.3724
vn 0.2751 0.6952 0.6641
vn 0.3548 0.3743 0.8567
vn 0.0000 0.3743 0.9273
vn 0.0000 0.0000 1.0000
vn 0.0000 0.9152 0.4031
vn 0.0000 0.6952 0.7188
vn 0.0000 -0.9152 0.4031
vn 0.0000 -0.3743 0.9273
vn 0.0000 -0.6952 0.7188
vn -0.1542 -0.9152 0.3724
vn -0.3548 -0.3743 0.8567
vn -0.3548 0.3743 0.8567
vn -0.1542 0.9152 0.3724
vn -0.2751 -0.6952 0.6641
vn -0.3827 0.0000 0.9239
vn -0.2751 0.6952 0.6641
vn -0.6557 0.3743 0.6557
vn -0.2850 0.9152 0.2850
vn -0.2850 -0.9152 0.2850
vn -0.6557 -0.3743 0.6557
vn -0.5083 -0.6952 0.5083
vn -0.7071 0.0000 0.7071
vn -0.5083 0.6952 0.5083
vn -0.3724 -0.9152 0.1542
vn -0.8567 -0.3743 0.3548
vn -0.6641 -0.6952 0.2751
vn -0.8567 0.3743 0.3548
vn -0.9239 0.0000 0.3827
vn -0.3724 0.9152 0.1542
vn -0.6641 0.6952 0.2751
s 1
f 6/1/1 12/2/2 13/3/3
f 3/4/4 11/5/5 4/6/6
f 1/7/7 9/8/8 2/9/9
f 6/1/1 14/10/10 7/11/11
f 4/6/6 12/2/2 5/12/12
f 3/4/4 9/8/8 10/13/13
f 1/7/7 44/14/14 8/15/15
f 22/16/16 7/11/11 14/10/10
f 14/10/10 20/17/17 21/18/18
f 11/5/5 19/19/19 12/2/2
f 9/8/8 17/20/20 10/13/13
f 8/15/15 44/14/14 15/21/21
f 22/16/16 14/10/10 21/18/18
f 12/2/2 20/17/17 13/3/3
f 10/13/13 18/22/22 11/5/5
f 8/15/15 16/23/23 9/8/8
f 16/23/23 25/24/24 17/20/20
f 15/21/21 44/14/14 23/25/25
f 22/16/16 21/18/18 29/26/26
f 19/19/19 28/27/27 20/17/17
f 17/20/20 26/28/28 18/22/22
f 15/21/21 24/29/29 16/23/23
f 20/17/17 29/26/26 21/18/18
f 19/19/19 26/28/28 27/30/30
f 22/16/16 29/26/26 36/31/31
f 27/30/30 35/32/32 28/27/27
f 25/24/24 33/33/33 26/28/28
f 23/25/25 31/34/34 24/29/29
f 29/26/26 35/32/32 36/31/31
f 26/28/28 34/35/35 27/30/30
f 25/24/24 31/34/34 32/36/36
f 23/25/25 44/14/14 30/37/37
f 30/37/37 38/38/38 31/34/34
f 36/31/31 42/39/39 43/40/40
f 34/35/35 40/41/41 41/42/42
f 32/36/36 38/38/38 39/43/43
f 30/37/37 44/14/14 37/44/44
f 22/16/16 36/31/31 43/40/40
f 34/35/35 42/39/39 35/32/32
f 32/36/36 40/41/41 33/33/33
f 43/40/40 50/45/45 51/46/46
f 41/42/42 48/47/47 49/48/48
f 38/38/38 47/49/49 39/43/43
f 37/44/44 44/14/14 45/50/50
f 22/16/16 43/40/40 51/46/46
f 41/42/42 50/45/45 42/39/39
f 39/43/43 48/47/47 40/41/41
f 38/38/38 45/50/50 46/51/51
f 45/50/50 44/14/14 52/52/52
f 22/16/16 51/46/46 58/53/53
f 50/45/45 56/54/54 57/55/55
f 47/49/49 55/56/56 48/47/47
f 46/51/51 52/52/52 53/57/57
f 50/45/45 58/53/53 51/46/46
f 48/47/47 56/54/54 49/48/48
f 46/51/51 54/58/58 47/49/49
f 57/55/55 63/59/59 64/60/60
f 54/58/58 62/61/61 55/56/56
f 52/52/52 60/62/62 53/57/57
f 57/55/55 65/63/63 58/53/53
f 55/56/56 63/59/59 56/54/54
f 53/57/57 61/64/64 54/58/58
f 52/52/52 44/14/14 59/65/65
f 22/16/16 58/53/53 65/63/63
f 65/66/63 71/67/66 72/68/67
f 62/69/61 70/70/68 63/71/59
f 60/72/62 68/73/69 61/74/64
f 59/75/65 44/76/14 66/77/70
f 22/78/16 65/66/63 72/68/67
f 63/71/59 71/67/66 64/79/60
f 62/69/61 68/73/69 69/80/71
f 60/72/62 66/77/70 67/81/72
f 69/80/71 77/82/73 70/70/68
f 67/81/72 75/83/74 68/73/69
f 66/77/70 44/76/14 73/84/75
f 22/78/16 72/68/67 79/85/76
f 71/67/66 77/82/73 78/86/77
f 68/73/69 76/87/78 69/80/71
f 66/77/70 74/88/79 67/81/72
f 72/68/67 78/86/77 79/85/76
f 22/78/16 79/85/76 86/89/80
f 78/86/77 84/90/81 85/91/82
f 75/83/74 83/92/83 76/87/78
f 74/88/79 80/93/84 81/94/85
f 79/85/76 85/91/82 86/89/80
f 76/87/78 84/90/81 77/82/73
f 74/88/79 82/95/86 75/83/74
f 73/84/75 44/76/14 80/93/84
f 83/92/83 89/96/87 90/97/88
f 81/94/85 87/98/89 88/99/90
f 85/91/82 93/100/91 86/89/80
f 83/92/83 91/101/92 84/90/81
f 82/95/86 88/99/90 89/96/87
f 80/93/84 44/76/14 87/98/89
f 22/78/16 86/89/80 93/100/91
f 84/90/81 92/102/93 85/91/82
f 92/102/93 100/103/94 93/100/91
f 90/97/88 98/104/95 91/101/92
f 88/99/90 96/105/96 89/96/87
f 87/98/89 44/76/14 94/106/97
f 22/78/16 93/100/91 100/103/94
f 92/102/93 98/104/95 99/107/98
f 89/96/87 97/108/99 90/97/88
f 88/99/90 94/106/97 95/109/100
f 95/109/100 103/110/101 96/105/96
f 94/106/97 44/76/14 101/111/102
f 22/78/16 100/103/94 107/112/103
f 99/107/98 105/113/104 106/114/105
f 97/108/99 103/110/101 104/115/106
f 94/106/97 102/116/107 95/109/100
f 100/103/94 106/114/105 107/112/103
f 97/108/99 105/113/104 98/104/95
f 22/78/16 107/112/103 114/117/108
f 106/114/105 112/118/109 113/119/110
f 104/115/106 110/120/111 111/121/112
f 102/116/107 108/122/113 109/123/114
f 107/112/103 113/119/110 114/117/108
f 104/115/106 112/118/109 105/113/104
f 103/110/101 109/123/114 110/120/111
f 101/111/102 44/76/14 108/122/113
f 109/123/114 1/7/7 2/9/9
f 113/119/110 7/11/11 114/117/108
f 111/121/112 5/12/12 112/118/109
f 110/120/111 2/9/9 3/4/4
f 108/122/113 44/76/14 1/7/7
f 22/78/16 114/117/108 7/11/11
f 112/118/109 6/1/1 113/119/110
f 111/121/112 3/4/4 4/6/6
f 6/1/1 5/12/12 12/2/2
f 3/4/4 10/13/13 11/5/5
f 1/7/7 8/15/15 9/8/8
f 6/1/1 13/3/3 14/10/10
f 4/6/6 11/5/5 12/2/2
f 3/4/4 2/9/9 9/8/8
f 14/10/10 13/3/3 20/17/17
f 11/5/5 18/22/22 19/19/19
f 9/8/8 16/23/23 17/20/20
f 12/2/2 19/19/19 20/17/17
f 10/13/13 17/20/20 18/22/22
f 8/15/15 15/21/21 16/23/23
f 16/23/23 24/29/29 25/24/24
f 19/19/19 27/30/30 28/27/27
f 17/20/20 25/24/24 26/28/28
f 15/21/21 23/25/25 24/29/29
f 20/17/17 28/27/27 29/26/26
f 19/19/19 18/22/22 26/28/28
f 27/30/30 34/35/35 35/32/32
f 25/24/24 32/36/36 33/33/33
f 23/25/25 30/37/37 31/34/34
f 29/26/26 28/27/27 35/32/32
f 26/28/28 33/33/33 34/35/35
f 25/24/24 24/29/29 31/34/34
f 30/37/37 37/44/44 38/38/38
f 36/31/31 35/32/32 42/39/39
f 34/35/35 33/33/33 40/41/41
f 32/36/36 31/34/34 38/38/38
f 34/35/35 41/42/42 42/39/39
f 32/36/36 39/43/43 40/41/41
f 43/40/40 42/39/39 50/45/45
f 41/42/42 40/41/41 48/47/47
f 38/38/38 46/51/51 47/49/49
f 41/42/42 49/48/48 50/45/45
f 39/43/43 47/49/49 48/47/47
f 38/38/38 37/44/44 45/50/50
f 50/45/45 49/48/48 56/54/54
f 47/49/49 54/58/58 55/56/56
f 46/51/51 45/50/50 52/52/52
f 50/45/45 57/55/55 58/53/53
f 48/47/47 55/56/56 56/54/54
f 46/51/51 53/57/57 54/58/58
f 57/55/55 56/54/54 63/59/59
f 54/58/58 61/64/64 62/61/61
f 52/52/52 59/65/65 60/62/62
f 57/55/55 64/60/60 65/63/63
f 55/56/56 62/61/61 63/59/59
f 53/57/57 60/62/62 61/64/64
f 65/66/63 64/79/60 71/67/66
f 62/69/61 69/80/71 70/70/68
f 60/72/62 67/81/72 68/73/69
f 63/71/59 70/70/68 71/67/66
f 62/69/61 61/74/64 68/73/69
f 60/72/62 59/75/65 66/77/70
f 69/80/71 76/87/78 77/82/73
f 67/81/72 74/88/79 75/83/74
f 71/67/66 70/70/68 77/82/73
f 68/73/69 75/83/74 76/87/78
f 66/77/70 73/84/75 74/88/79
f 72/68/67 71/67/66 78/86/77
f 78/86/77 77/82/73 84/90/81
f 75/83/74 82/95/86 83/92/83
f 74/88/79 73/84/75 80/93/84
f 79/85/76 78/86/77 85/91/82
f 76/87/78 83/92/83 84/90/81
f 74/88/79 81/94/85 82/95/86
f 83/92/83 82/95/86 89/96/87
f 81/94/85 80/93/84 87/98/89
f 85/91/82 92/102/93 93/100/91
f 83/92/83 90/97/88 91/101/92
f 82/95/86 81/94/85 88/99/90
f 84/90/81 91/101/92 92/102/93
f 92/102/93 99/107/98 100/103/94
f 90/97/88 97/108/99 98/104/95
f 88/99/90 95/109/100 96/105/96
f 92/102/93 91/101/92 98/104/95
f 89/96/87 96/105/96 97/108/99
f 88/99/90 87/98/89 94/106/97
f 95/109/100 102/116/107 103/110/101
f 99/107/98 98/104/95 105/113/104
f 97/108/99 96/105/96 103/110/101
f 94/106/97 101/111/102 102/116/107
f 100/103/94 99/107/98 106/114/105
f 97/108/99 104/115/106 105/113/104
f 106/114/105 105/113/104 112/118/109
f 104/115/106 103/110/101 110/120/111
f 102/116/107 101/111/102 108/122/113
f 107/112/103 106/114/105 113/119/110
f 104/115/106 111/121/112 112/118/109
f 103/110/101 102/116/107 109/123/114
f 109/123/114 108/122/113 1/7/7
f 113/119/110 6/1/1 7/11/11
f 111/121/112 4/6/6 5/12/12
f 110/120/111 109/123/114 2/9/9
f 112/118/109 5/12/12 6/1/1
f 111/121/112 110/120/111 3/4/4
