# Blender v2.77 (sub 0) OBJ File: 'bubble.blend'
# www.blender.org
o Sphere
v -0.382683 0.923880 0.000000
v -0.707107 0.707107 0.000000
v -0.923880 0.382683 0.000000
v -1.000000 -0.000000 0.000000
v -0.923880 -0.382684 0.000000
v -0.707107 -0.707107 0.000000
v -0.382683 -0.923880 0.000000
v -0.353553 0.923880 -0.146447
v -0.653281 0.707107 -0.270598
v -0.853553 0.382683 -0.353553
v -0.923880 -0.000000 -0.382683
v -0.853553 -0.382684 -0.353553
v -0.653281 -0.707107 -0.270598
v -0.353553 -0.923880 -0.146447
v -0.270598 0.923880 -0.270598
v -0.500000 0.707107 -0.500000
v -0.653281 0.382683 -0.653281
v -0.707107 -0.000000 -0.707107
v -0.653281 -0.382684 -0.653281
v -0.500000 -0.707107 -0.500000
v -0.270598 -0.923880 -0.270598
v -0.000000 -1.000000 0.000000
v -0.146447 0.923880 -0.353553
v -0.270598 0.707107 -0.653281
v -0.353553 0.382683 -0.853553
v -0.382683 -0.000000 -0.923879
v -0.353553 -0.382684 -0.853553
v -0.270598 -0.707107 -0.653281
v -0.146447 -0.923880 -0.353553
v -0.000000 0.923880 -0.382683
v -0.000000 0.707107 -0.707107
v -0.000000 0.382683 -0.923879
v -0.000000 -0.000000 -1.000000
v -0.000000 -0.382684 -0.923879
v -0.000000 -0.707107 -0.707107
v -0.000000 -0.923880 -0.382683
v 0.146446 0.923880 -0.353553
v 0.270598 0.707107 -0.653281
v 0.353553 0.382683 -0.853553
v 0.382683 -0.000000 -0.923879
v 0.353553 -0.382684 -0.853553
v 0.270598 -0.707107 -0.653281
v 0.146446 -0.923880 -0.353553
v -0.000000 1.000000 0.000000
v 0.270598 0.923880 -0.270598
v 0.500000 0.707107 -0.500000
v 0.653281 0.382683 -0.653281
v 0.707107 -0.000000 -0.707106
v 0.653281 -0.382684 -0.653281
v 0.500000 -0.707107 -0.500000
v 0.270598 -0.923880 -0.270598
v 0.353553 0.923880 -0.146446
v 0.653281 0.707107 -0.270598
v 0.853553 0.382683 -0.353553
v 0.923879 -0.000000 -0.382683
v 0.853553 -0.382684 -0.353553
v 0.653281 -0.707107 -0.270598
v 0.353553 -0.923880 -0.146446
v 0.382683 0.923880 0.000000
v 0.707106 0.707107 0.000000
v 0.923879 0.382683 0.000000
v 1.000000 -0.000000 0.000000
v 0.923879 -0.382684 0.000000
v 0.707106 -0.707107 0.000000
v 0.382683 -0.923880 0.000000
v 0.353553 0.923880 0.146447
v 0.653281 0.707107 0.270598
v 0.853553 0.382683 0.353554
v 0.923879 -0.000000 0.382684
v 0.853553 -0.382684 0.353554
v 0.653281 -0.707107 0.270598
v 0.353553 -0.923880 0.146447
v 0.270598 0.923880 0.270598
v 0.499999 0.707107 0.500000
v 0.653281 0.382683 0.653282
v 0.707106 -0.000000 0.707107
v 0.653281 -0.382684 0.653282
v 0.499999 -0.707107 0.500000
v 0.270598 -0.923880 0.270598
v 0.146446 0.923880 0.353553
v 0.270597 0.707107 0.653281
v 0.353553 0.382683 0.853553
v 0.382683 -0.000000 0.923879
v 0.353553 -0.382684 0.853553
v 0.270597 -0.707107 0.653281
v 0.146446 -0.923880 0.353553
v -0.000000 0.923880 0.382683
v -0.000000 0.707107 0.707106
v -0.000001 0.382683 0.923879
v -0.000001 -0.000000 1.000000
v -0.000001 -0.382684 0.923879
v -0.000000 -0.707107 0.707106
v -0.000000 -0.923880 0.382683
v -0.146447 0.923880 0.353553
v -0.270598 0.707107 0.653281
v -0.353554 0.382683 0.853553
v -0.382684 -0.000000 0.923879
v -0.353554 -0.382684 0.853553
v -0.270598 -0.707107 0.653281
v -0.146447 -0.923880 0.353553
v -0.270598 0.923880 0.270598
v -0.500000 0.707107 0.499999
v -0.653282 0.382683 0.653281
v -0.707107 -0.000000 0.707106
v -0.653282 -0.382684 0.653281
v -0.500000 -0.707107 0.499999
v -0.270598 -0.923880 0.270598
v -0.353553 0.923880 0.146446
v -0.653281 0.707107 0.270598
v -0.853553 0.382683 0.353553
v -0.923880 -0.000000 0.382683
v -0.853553 -0.382684 0.353553
v -0.653281 -0.707107 0.270598
v -0.353553 -0.923880 0.146446
vt 0.4416 0.2410
vt 0.4918 0.2824
vt 0.4814 0.2325
vt 0.4606 0.3333
vt 0.5091 0.3656
vt 0.5004 0.3240
vt 0.5195 0.4155
vt 0.5009 0.5022
vt 0.5464 0.5100
vt 0.4165 0.1603
vt 0.4547 0.1379
vt 0.4703 0.3748
vt 0.4658 0.6056
vt 0.3390 0.0714
vt 0.4013 0.2490
vt 0.4519 0.2913
vt 0.4199 0.3431
vt 0.4308 0.3854
vt 0.4835 0.4234
vt 0.4658 0.5029
vt 0.3837 0.1740
vt 0.4458 0.4333
vt 0.3901 0.3980
vt 0.4357 0.5099
vt 0.3521 0.1809
vt 0.3681 0.3083
vt 0.4109 0.3000
vt 0.3775 0.3539
vt 0.4085 0.4462
vt 0.3204 0.1811
vt 0.3173 0.2578
vt 0.3605 0.2551
vt 0.3474 0.4138
vt 0.3713 0.4635
vt 0.3317 0.3661
vt 0.4089 0.5229
vt 0.3853 0.5424
vt 0.2697 0.2557
vt 0.3218 0.3159
vt 0.2801 0.3808
vt 0.3008 0.4349
vt 0.2878 0.1739
vt 0.2545 0.1574
vt 0.2057 0.3271
vt 0.2693 0.3224
vt 0.2479 0.4649
vt 0.3338 0.4876
vt 0.3658 0.5693
vt 0.2145 0.2459
vt 0.2181 0.3999
vt 0.3533 0.6047
vt 0.2218 0.1281
vt 0.1222 0.3281
vt 0.1374 0.4274
vt 0.2584 0.5724
vt 0.2957 0.5220
vt 0.1848 0.5111
vt 0.1474 0.2223
vt 0.0001 0.3193
vt 0.0200 0.4719
vt 0.3530 0.6485
vt 0.1943 0.0808
vt 0.1058 0.5889
vt 0.6476 0.0438
vt 0.7731 0.0001
vt 0.6480 0.0001
vt 0.8157 0.1372
vt 0.9800 0.1764
vt 0.8945 0.0597
vt 0.8781 0.3198
vt 0.9375 0.4761
vt 0.9999 0.3286
vt 0.8063 0.5665
vt 0.7788 0.5193
vt 0.6620 0.5760
vt 0.5354 0.0427
vt 0.8629 0.2207
vt 0.7527 0.1833
vt 0.7947 0.3208
vt 0.8530 0.4254
vt 0.7462 0.4901
vt 0.6351 0.0791
vt 0.7423 0.0760
vt 0.7824 0.2482
vt 0.7861 0.4019
vt 0.6157 0.1059
vt 0.7050 0.1264
vt 0.6999 0.2133
vt 0.7206 0.2673
vt 0.7129 0.4737
vt 0.7313 0.3255
vt 0.6690 0.2819
vt 0.7310 0.3921
vt 0.6804 0.4666
vt 0.6295 0.1846
vt 0.6670 0.1606
vt 0.6534 0.2343
vt 0.6789 0.3320
vt 0.5920 0.1253
vt 0.5924 0.2019
vt 0.6107 0.2501
vt 0.6327 0.3396
vt 0.6834 0.3900
vt 0.6487 0.4669
vt 0.5653 0.1382
vt 0.6233 0.2941
vt 0.5900 0.3479
vt 0.6404 0.3928
vt 0.6173 0.4737
vt 0.5352 0.1452
vt 0.5701 0.2626
vt 0.5995 0.3988
vt 0.5002 0.1458
vt 0.5551 0.2147
vt 0.5306 0.2732
vt 0.5809 0.3049
vt 0.5490 0.3567
vt 0.5845 0.4875
vt 0.5174 0.2246
vt 0.5593 0.4069
vt 0.5402 0.3147
vt 0.0627 0.1714
vt 0.2275 0.6485
vn 0.6641 0.6952 0.2751
vn 0.9273 0.3743 0.0000
vn 0.7188 0.6952 0.0000
vn 0.9239 0.0000 0.3827
vn 0.9273 -0.3743 0.0000
vn 1.0000 0.0000 0.0000
vn 0.7188 -0.6952 0.0000
vn 0.3724 -0.9152 0.1542
vn 0.4031 -0.9152 0.0000
vn 0.3724 0.9152 0.1542
vn 0.4031 0.9152 0.0000
vn 0.8567 -0.3743 0.3548
vn 0.0000 -1.0000 0.0000
vn 0.0000 1.0000 0.0000
vn 0.5083 0.6952 0.5083
vn 0.8567 0.3743 0.3548
vn 0.7071 0.0000 0.7071
vn 0.6557 -0.3743 0.6557
vn 0.6641 -0.6952 0.2751
vn 0.2850 -0.9152 0.2850
vn 0.2850 0.9152 0.2850
vn 0.5083 -0.6952 0.5083
vn 0.3548 -0.3743 0.8567
vn 0.1542 -0.9152 0.3724
vn 0.1542 0.9152 0.3724
vn 0.3548 0.3743 0.8567
vn 0.6557 0.3743 0.6557
vn 0.3827 0.0000 0.9239
vn 0.2751 -0.6952 0.6641
vn 0.0000 0.9152 0.4031
vn 0.0000 0.6952 0.7188
vn 0.2751 0.6952 0.6641
vn 0.0000 -0.3743 0.9273
vn 0.0000 -0.6952 0.7188
vn 0.0000 0.0000 1.0000
vn 0.0000 -0.9152 0.4031
vn -0.1542 -0.9152 0.3724
vn -0.2751 0.6952 0.6641
vn 0.0000 0.3743 0.9273
vn -0.3827 0.0000 0.9239
vn -0.3548 -0.3743 0.8567
vn -0.1542 0.9152 0.3724
vn -0.2850 0.9152 0.2850
vn -0.6557 0.3743 0.6557
vn -0.3548 0.3743 0.8567
vn -0.6557 -0.3743 0.6557
vn -0.2751 -0.6952 0.6641
vn -0.2850 -0.9152 0.2850
vn -0.5083 0.6952 0.5083
vn -0.7071 0.0000 0.7071
vn -0.3724 -0.9152 0.1542
vn -0.3724 0.9152 0.1542
vn -0.8567 0.3743 0.3548
vn -0.9239 0.0000 0.3827
vn -0.6641 -0.6952 0.2751
vn -0.5083 -0.6952 0.5083
vn -0.8567 -0.3743 0.3548
vn -0.6641 0.6952 0.2751
vn -0.9273 0.3743 0.0000
vn -1.0000 0.0000 0.0000
vn -0.4031 -0.9152 0.0000
vn -0.4031 0.9152 0.0000
vn -0.9273 -0.3743 0.0000
vn -0.3724 0.9152 -0.1542
vn -0.7188 0.6952 0.0000
vn -0.8567 0.3743 -0.3548
vn -0.8567 -0.3743 -0.3548
vn -0.7188 -0.6952 0.0000
vn -0.3724 -0.9152 -0.1542
vn -0.9239 0.0000 -0.3827
vn -0.6557 0.3743 -0.6557
vn -0.6557 -0.3743 -0.6557
vn -0.6641 -0.6952 -0.2751
vn -0.2850 -0.9152 -0.2850
vn -0.2850 0.9152 -0.2850
vn -0.6641 0.6952 -0.2751
vn -0.7071 0.0000 -0.7071
vn -0.5083 -0.6952 -0.5083
vn -0.1542 0.9152 -0.3724
vn -0.5083 0.6952 -0.5083
vn -0.3548 0.3743 -0.8567
vn -0.3827 0.0000 -0.9239
vn -0.1542 -0.9152 -0.3724
vn -0.3548 -0.3743 -0.8567
vn 0.0000 0.0000 -1.0000
vn -0.2751 -0.6952 -0.6641
vn 0.0000 -0.9152 -0.4031
vn 0.0000 0.6952 -0.7188
vn -0.2751 0.6952 -0.6641
vn 0.0000 0.3743 -0.9273
vn 0.0000 -0.3743 -0.9273
vn 0.0000 0.9152 -0.4031
vn 0.2751 0.6952 -0.6641
vn 0.3548 0.3743 -0.8567
vn 0.3548 -0.3743 -0.8567
vn 0.0000 -0.6952 -0.7188
vn 0.1542 -0.9152 -0.3724
vn 0.1542 0.9152 -0.3724
vn 0.3827 0.0000 -0.9239
vn 0.6557 -0.3743 -0.6557
vn 0.2751 -0.6952 -0.6641
vn 0.2850 -0.9152 -0.2850
vn 0.2850 0.9152 -0.2850
vn 0.6557 0.3743 -0.6557
vn 0.5083 -0.6952 -0.5083
vn 0.3724 0.9152 -0.1542
vn 0.5083 0.6952 -0.5083
vn 0.8567 0.3743 -0.3548
vn 0.7071 0.0000 -0.7071
vn 0.8567 -0.3743 -0.3548
vn 0.3724 -0.9152 -0.1542
vn 0.6641 0.6952 -0.2751
vn 0.6641 -0.6952 -0.2751
vn 0.9239 0.0000 -0.3827
s 1
f 13/1/1 5/2/2 6/3/3
f 11/4/4 3/5/5 4/6/6
f 2/7/7 8/8/8 1/9/9
f 14/10/10 6/3/3 7/11/11
f 5/2/2 11/4/4 4/6/6
f 10/12/12 2/7/7 3/5/5
f 1/9/9 8/8/8 44/13/13
f 22/14/14 14/10/10 7/11/11
f 14/10/10 20/15/15 13/1/1
f 12/16/16 18/17/17 11/4/4
f 17/18/18 9/19/19 10/12/12
f 8/8/8 15/20/20 44/13/13
f 22/14/14 21/21/21 14/10/10
f 20/15/15 12/16/16 13/1/1
f 18/17/17 10/12/12 11/4/4
f 16/22/22 8/8/8 9/19/19
f 25/23/23 16/22/22 17/18/18
f 15/20/20 23/24/24 44/13/13
f 22/14/14 29/25/25 21/21/21
f 20/15/15 27/26/26 19/27/27
f 26/28/28 17/18/18 18/17/17
f 24/29/29 15/20/20 16/22/22
f 29/25/25 20/15/15 21/21/21
f 27/26/26 18/17/17 19/27/27
f 22/14/14 36/30/30 29/25/25
f 35/31/31 27/26/26 28/32/32
f 26/28/28 32/33/33 25/23/23
f 31/34/34 23/24/24 24/29/29
f 29/25/25 35/31/31 28/32/32
f 27/26/26 33/35/35 26/28/28
f 32/33/33 24/29/29 25/23/23
f 23/24/24 30/36/36 44/13/13
f 31/34/34 37/37/37 30/36/36
f 36/30/30 42/38/38 35/31/31
f 34/39/39 40/40/40 33/35/35
f 39/41/41 31/34/34 32/33/33
f 30/36/36 37/37/37 44/13/13
f 22/14/14 43/42/42 36/30/30
f 42/38/38 34/39/39 35/31/31
f 40/40/40 32/33/33 33/35/35
f 51/43/43 42/38/38 43/42/42
f 49/44/44 40/40/40 41/45/45
f 47/46/46 38/47/47 39/41/41
f 37/37/37 45/48/48 44/13/13
f 22/14/14 51/43/43 43/42/42
f 50/49/49 41/45/45 42/38/38
f 48/50/50 39/41/41 40/40/40
f 38/47/47 45/48/48 37/37/37
f 45/48/48 52/51/51 44/13/13
f 22/14/14 58/52/52 51/43/43
f 50/49/49 56/53/53 49/44/44
f 55/54/54 47/46/46 48/50/50
f 53/55/55 45/48/48 46/56/56
f 58/52/52 50/49/49 51/43/43
f 56/53/53 48/50/50 49/44/44
f 54/57/57 46/56/56 47/46/46
f 57/58/58 63/59/59 56/53/53
f 62/60/60 54/57/57 55/54/54
f 53/55/55 59/61/61 52/51/51
f 65/62/62 57/58/58 58/52/52
f 63/59/59 55/54/54 56/53/53
f 61/63/63 53/55/55 54/57/57
f 52/51/51 59/61/61 44/13/13
f 22/14/14 65/62/62 58/52/52
f 72/64/64 64/65/65 65/66/62
f 70/67/66 62/68/60 63/69/59
f 68/70/67 60/71/68 61/72/63
f 59/73/61 66/74/69 44/75/13
f 22/76/14 72/64/64 65/66/62
f 64/65/65 70/67/66 63/69/59
f 69/77/70 61/72/63 62/68/60
f 60/71/68 66/74/69 59/73/61
f 77/78/71 69/77/70 70/67/66
f 75/79/72 67/80/73 68/70/67
f 66/74/69 73/81/74 44/75/13
f 22/76/14 79/82/75 72/64/64
f 71/83/76 77/78/71 70/67/66
f 76/84/77 68/70/67 69/77/70
f 74/85/78 66/74/69 67/80/73
f 79/82/75 71/83/76 72/64/64
f 22/76/14 86/86/79 79/82/75
f 78/87/80 84/88/81 77/78/71
f 83/89/82 75/79/72 76/84/77
f 74/85/78 80/90/83 73/81/74
f 86/86/79 78/87/80 79/82/75
f 84/88/81 76/84/77 77/78/71
f 82/91/84 74/85/78 75/79/72
f 73/81/74 80/90/83 44/75/13
f 90/92/85 82/91/84 83/89/82
f 81/93/86 87/94/87 80/90/83
f 86/86/79 92/95/88 85/96/89
f 91/97/90 83/89/82 84/88/81
f 89/98/91 81/93/86 82/91/84
f 80/90/83 87/94/87 44/75/13
f 22/76/14 93/99/92 86/86/79
f 92/95/88 84/88/81 85/96/89
f 93/99/92 99/100/93 92/95/88
f 98/101/94 90/92/85 91/97/90
f 96/102/95 88/103/96 89/98/91
f 87/94/87 94/104/97 44/75/13
f 22/76/14 100/105/98 93/99/92
f 99/100/93 91/97/90 92/95/88
f 97/106/99 89/98/91 90/92/85
f 88/103/96 94/104/97 87/94/87
f 103/107/100 95/108/101 96/102/95
f 94/104/97 101/109/102 44/75/13
f 22/76/14 107/110/103 100/105/98
f 99/100/93 105/111/104 98/101/94
f 97/106/99 103/107/100 96/102/95
f 102/112/105 94/104/97 95/108/101
f 107/110/103 99/100/93 100/105/98
f 105/111/104 97/106/99 98/101/94
f 22/76/14 114/113/106 107/110/103
f 106/114/107 112/115/108 105/111/104
f 104/116/109 110/117/110 103/107/100
f 102/112/105 108/118/111 101/109/102
f 107/110/103 113/119/112 106/114/107
f 112/115/108 104/116/109 105/111/104
f 110/117/110 102/112/105 103/107/100
f 101/109/102 108/118/111 44/75/13
f 109/120/113 1/9/9 108/118/111
f 7/11/11 113/119/112 114/113/106
f 5/2/2 111/121/114 112/115/108
f 110/117/110 2/7/7 109/120/113
f 108/118/111 1/9/9 44/75/13
f 22/76/14 7/11/11 114/113/106
f 6/3/3 112/115/108 113/119/112
f 111/121/114 3/5/5 110/117/110
f 13/1/1 12/16/16 5/2/2
f 11/4/4 10/12/12 3/5/5
f 2/7/7 9/19/19 8/8/8
f 14/10/10 13/1/1 6/3/3
f 5/2/2 12/16/16 11/4/4
f 10/12/12 9/19/19 2/7/7
f 14/10/10 21/21/21 20/15/15
f 12/16/16 19/27/27 18/17/17
f 17/18/18 16/22/22 9/19/19
f 20/15/15 19/27/27 12/16/16
f 18/17/17 17/18/18 10/12/12
f 16/22/22 15/20/20 8/8/8
f 25/23/23 24/29/29 16/22/22
f 20/15/15 28/32/32 27/26/26
f 26/28/28 25/23/23 17/18/18
f 24/29/29 23/24/24 15/20/20
f 29/25/25 28/32/32 20/15/15
f 27/26/26 26/28/28 18/17/17
f 35/31/31 34/39/39 27/26/26
f 26/28/28 33/35/35 32/33/33
f 31/34/34 30/36/36 23/24/24
f 29/25/25 36/30/30 35/31/31
f 27/26/26 34/39/39 33/35/35
f 32/33/33 31/34/34 24/29/29
f 31/34/34 38/47/47 37/37/37
f 36/30/30 43/42/42 42/38/38
f 34/39/39 41/45/45 40/40/40
f 39/41/41 38/47/47 31/34/34
f 42/38/38 41/45/45 34/39/39
f 40/40/40 39/41/41 32/33/33
f 51/43/43 50/49/49 42/38/38
f 49/44/44 48/50/50 40/40/40
f 47/46/46 46/56/56 38/47/47
f 50/49/49 49/44/44 41/45/45
f 48/50/50 47/46/46 39/41/41
f 38/47/47 46/56/56 45/48/48
f 50/49/49 57/58/58 56/53/53
f 55/54/54 54/57/57 47/46/46
f 53/55/55 52/51/51 45/48/48
f 58/52/52 57/58/58 50/49/49
f 56/53/53 55/54/54 48/50/50
f 54/57/57 53/55/55 46/56/56
f 57/58/58 64/122/65 63/59/59
f 62/60/60 61/63/63 54/57/57
f 53/55/55 60/123/68 59/61/61
f 65/62/62 64/122/65 57/58/58
f 63/59/59 62/60/60 55/54/54
f 61/63/63 60/123/68 53/55/55
f 72/64/64 71/83/76 64/65/65
f 70/67/66 69/77/70 62/68/60
f 68/70/67 67/80/73 60/71/68
f 64/65/65 71/83/76 70/67/66
f 69/77/70 68/70/67 61/72/63
f 60/71/68 67/80/73 66/74/69
f 77/78/71 76/84/77 69/77/70
f 75/79/72 74/85/78 67/80/73
f 71/83/76 78/87/80 77/78/71
f 76/84/77 75/79/72 68/70/67
f 74/85/78 73/81/74 66/74/69
f 79/82/75 78/87/80 71/83/76
f 78/87/80 85/96/89 84/88/81
f 83/89/82 82/91/84 75/79/72
f 74/85/78 81/93/86 80/90/83
f 86/86/79 85/96/89 78/87/80
f 84/88/81 83/89/82 76/84/77
f 82/91/84 81/93/86 74/85/78
f 90/92/85 89/98/91 82/91/84
f 81/93/86 88/103/96 87/94/87
f 86/86/79 93/99/92 92/95/88
f 91/97/90 90/92/85 83/89/82
f 89/98/91 88/103/96 81/93/86
f 92/95/88 91/97/90 84/88/81
f 93/99/92 100/105/98 99/100/93
f 98/101/94 97/106/99 90/92/85
f 96/102/95 95/108/101 88/103/96
f 99/100/93 98/101/94 91/97/90
f 97/106/99 96/102/95 89/98/91
f 88/103/96 95/108/101 94/104/97
f 103/107/100 102/112/105 95/108/101
f 99/100/93 106/114/107 105/111/104
f 97/106/99 104/116/109 103/107/100
f 102/112/105 101/109/102 94/104/97
f 107/110/103 106/114/107 99/100/93
f 105/111/104 104/116/109 97/106/99
f 106/114/107 113/119/112 112/115/108
f 104/116/109 111/121/114 110/117/110
f 102/112/105 109/120/113 108/118/111
f 107/110/103 114/113/106 113/119/112
f 112/115/108 111/121/114 104/116/109
f 110/117/110 109/120/113 102/112/105
f 109/120/113 2/7/7 1/9/9
f 7/11/11 6/3/3 113/119/112
f 5/2/2 4/6/6 111/121/114
f 110/117/110 3/5/5 2/7/7
f 6/3/3 5/2/2 112/115/108
f 111/121/114 4/6/6 3/5/5
