# Blender v2.77 (sub 0) OBJ File: 'fish.blend'
# www.blender.org
o Sphere
v -0.237512 0.146447 1.362600
v -0.438865 0.270598 1.042889
v -0.573405 0.353553 0.564407
v -0.620650 0.382683 -0.000000
v -0.573405 0.353553 -0.564408
v -0.438866 0.270598 -1.042889
v -0.237512 0.146447 -1.362600
v -0.098381 0.353553 1.362600
v -0.181784 0.653281 1.042889
v -0.137159 0.853553 0.564407
v -0.219836 0.923879 -0.315989
v -0.160397 0.853553 -0.564408
v -0.181784 0.653281 -1.042889
v -0.098381 0.353553 -1.362600
v 0.098381 0.353553 1.362600
v 0.181784 0.653281 1.042889
v 0.137158 0.853553 0.564407
v 0.219836 0.923879 -0.315989
v 0.160396 0.853553 -0.564408
v 0.181784 0.653281 -1.042889
v 0.098381 0.353553 -1.362600
v -0.000000 0.000000 1.436764
v 0.237512 0.146447 1.362600
v 0.438865 0.270598 1.042889
v 0.573405 0.353554 0.564407
v 0.620649 0.382683 -0.000000
v 0.573405 0.353553 -0.564408
v 0.438865 0.270598 -1.042889
v 0.237512 0.146447 -1.362600
v 0.237512 -0.146446 1.362600
v 0.438865 -0.270598 1.042889
v 0.573405 -0.353553 0.564407
v 0.620649 -0.382683 -0.000000
v 0.573405 -0.353553 -0.564408
v 0.438865 -0.270598 -1.042889
v 0.237512 -0.146447 -1.362600
v -0.000000 -0.000000 -1.474868
v 0.098381 -0.353553 1.362600
v 0.181784 -0.653281 1.042889
v 0.237512 -0.853553 0.564407
v 0.257081 -0.923879 -0.000000
v 0.237512 -0.853553 -0.564407
v 0.181784 -0.653281 -1.042889
v 0.098381 -0.353553 -1.362600
v -0.098381 -0.353553 1.362600
v -0.181784 -0.653281 1.042889
v -0.237512 -0.853553 0.564407
v -0.257081 -0.923879 0.000000
v -0.237512 -0.853553 -0.564407
v -0.181784 -0.653281 -1.042889
v -0.098381 -0.353553 -1.362600
v -0.237512 -0.146446 1.362600
v -0.438865 -0.270598 1.042889
v -0.573405 -0.353553 0.564407
v -0.620649 -0.382683 -0.000000
v -0.573405 -0.353553 -0.564407
v -0.438865 -0.270598 -1.042889
v -0.237512 -0.146447 -1.362600
v -0.902928 0.061466 0.618609
v 0.902928 0.061466 0.618609
v 0.902928 -0.061465 0.618609
v -0.902928 -0.061466 0.618610
v -0.030562 0.955029 0.663215
v -0.048985 0.998983 -0.143974
v 0.030562 0.955029 0.663215
v 0.048984 0.998983 -0.143974
v -0.000000 1.252059 0.356806
v -0.000000 1.181733 1.240206
v -0.030562 1.084158 0.791292
v -0.029783 1.180856 0.159277
v 0.030562 1.084158 0.956954
v 0.029783 1.180856 0.159277
v 0.098381 0.927034 2.006780
v -0.098381 0.927034 2.006780
v -0.098381 -0.927962 2.011313
v 0.098381 -0.927962 2.011313
v -0.000000 0.001856 1.571807
v -0.000000 0.853553 0.564407
v 0.000000 -0.596701 1.493363
v 0.000000 -0.353553 -1.362600
v -0.000000 1.180856 0.159277
v -0.000000 0.653281 1.042889
v 0.000000 -0.653281 -1.042889
v -0.000000 1.084158 0.874123
v -0.000000 0.353553 -1.362600
v -0.000000 0.511283 1.362600
v 0.000000 -0.853553 -0.564407
v -0.000000 0.653281 -1.042889
v 0.000000 -0.923879 -0.000000
v -0.000000 0.897644 -0.564408
v -0.000000 0.998983 -0.143974
v 0.000000 -0.853553 0.564407
v -0.000000 0.852575 1.853241
v -0.000000 0.967971 -0.315989
v -0.000000 0.955029 0.663215
v 0.000000 -0.653281 1.042889
v 0.000000 -0.915635 1.984004
vt 0.7090 0.2035
vt 0.6252 0.1286
vt 0.7122 0.1390
vt 0.7081 0.2735
vt 0.5755 0.3343
vt 0.5860 0.2241
vt 0.6846 0.3999
vt 0.6356 0.4563
vt 0.6075 0.3944
vt 0.6695 0.0643
vt 0.7252 0.0757
vt 0.5882 0.1898
vt 0.6919 0.3383
vt 0.6816 0.4560
vt 0.6757 0.5122
vt 0.7522 0.0000
vt 0.5965 0.1062
vt 0.6566 0.0439
vt 0.5464 0.2163
vt 0.5568 0.1807
vt 0.5814 0.4085
vt 0.5577 0.3493
vt 0.7886 0.5387
vt 0.6537 0.5354
vt 0.7546 0.0000
vt 0.6576 0.0410
vt 0.6702 0.0615
vt 0.5476 0.3384
vt 0.6080 0.4468
vt 0.6069 0.3934
vt 0.6914 0.3375
vt 0.5748 0.3333
vt 0.6351 0.4557
vt 0.6741 0.5128
vt 0.6817 0.4561
vt 0.7251 0.0734
vt 0.6256 0.1264
vt 0.7108 0.2029
vt 0.7132 0.1365
vt 0.7073 0.2740
vt 0.5858 0.2230
vt 0.6847 0.3986
vt 0.5880 0.1885
vt 0.7900 0.0742
vt 0.8032 0.2080
vt 0.8041 0.1401
vt 0.7943 0.2840
vt 0.7732 0.4279
vt 0.7512 0.2683
vt 0.7935 0.3588
vt 0.7357 0.4851
vt 0.7868 0.5404
vt 0.8847 0.4724
vt 0.8502 0.0584
vt 0.9304 0.2107
vt 0.9257 0.3816
vt 0.9028 0.1313
vt 0.9378 0.2946
vt 0.9372 0.1047
vt 0.8629 0.0350
vt 0.9990 0.2958
vt 0.9831 0.1941
vt 0.9826 0.4018
vt 0.5556 0.4619
vt 0.5454 0.4575
vt 0.8618 0.0321
vt 0.8493 0.0557
vt 0.9332 0.5043
vt 0.7372 0.4826
vt 0.7899 0.0717
vt 0.9026 0.1294
vt 0.8016 0.2083
vt 0.8029 0.1381
vt 0.9268 0.3810
vt 0.7958 0.2857
vt 0.9387 0.2942
vt 0.7753 0.4267
vt 0.8861 0.4712
vt 0.9308 0.2099
vt 0.7955 0.3591
vt 0.7558 0.2830
vt 0.7523 0.2692
vt 0.7034 0.2740
vt 0.7904 0.2840
vt 0.7493 0.2817
vt 0.7562 0.2692
vt 0.5504 0.2409
vt 0.5469 0.3374
vt 0.5508 0.2420
vt 0.5459 0.2150
vt 0.5424 0.2369
vt 0.5150 0.2737
vt 0.5155 0.2748
vt 0.5477 0.3421
vt 0.5235 0.3505
vt 0.5205 0.3685
vt 0.4991 0.2951
vt 0.4998 0.2964
vt 0.4998 0.4007
vt 0.4991 0.3995
vt 0.5313 0.3666
vt 0.5114 0.2720
vt 0.5462 0.4595
vt 0.6613 0.5123
vt 0.5565 0.4637
vt 0.9034 0.8062
vt 0.6479 0.5360
vt 0.9043 0.8030
vt 0.6518 0.5360
vt 0.9074 0.8062
vt 0.8716 0.5974
vt 0.9104 0.8037
vt 0.6598 0.5125
vt 0.5517 0.4619
vt 0.6559 0.5125
vt 0.5415 0.4575
vt 1.0000 0.2951
vt 0.9836 0.4010
vt 0.5563 0.1792
vt 0.5966 0.1038
vt 0.6074 0.4460
vt 0.5808 0.4077
vt 0.5429 0.2380
vt 0.9839 0.1929
vt 0.5109 0.2709
vt 0.9374 0.1025
vt 0.8699 0.5994
vt 0.9082 0.8030
vt 0.9113 0.8005
vt 0.9344 0.5029
vt 0.5569 0.3482
vt 0.5480 0.3405
vt 0.5236 0.3612
vt 0.7454 0.2817
vn -0.9110 0.3336 -0.2423
vn -0.4148 0.7563 -0.5058
vn -0.8597 0.2628 -0.4380
vn -0.8350 0.5449 0.0758
vn -0.6130 0.7238 0.3167
vn -0.5605 0.8142 -0.1512
vn -0.8597 0.2628 0.4380
vn -0.8548 0.2758 0.4396
vn -0.4604 0.7707 0.4404
vn -0.2962 0.5022 -0.8124
vn -0.6272 0.1806 -0.7576
vn -0.4723 0.8108 -0.3455
vn -0.9237 0.3361 0.1836
vn -0.5891 0.1669 0.7906
vn 0.0000 0.0040 1.0000
vn 0.0000 0.0000 -1.0000
vn 0.0000 0.8353 -0.5497
vn 0.0000 0.5333 -0.8459
vn 0.0000 0.9657 -0.2595
vn 0.0000 0.9330 -0.3598
vn 0.0000 0.9182 0.3960
vn 0.0000 0.1998 0.9798
vn -0.8648 -0.2811 0.4160
vn 0.0000 0.0066 1.0000
vn 0.2962 0.5022 -0.8124
vn -0.6664 -0.4266 0.6115
vn 0.0000 0.9810 0.1937
vn 0.4604 0.7707 0.4404
vn 0.9237 0.3361 0.1836
vn 0.6130 0.7238 0.3167
vn 0.8548 0.2758 0.4396
vn 0.5891 0.1669 0.7906
vn 0.6272 0.1806 -0.7576
vn 0.4148 0.7563 -0.5058
vn 0.9110 0.3336 -0.2423
vn 0.8597 0.2628 -0.4380
vn 0.8350 0.5449 0.0758
vn 0.5605 0.8142 -0.1512
vn 0.8597 0.2628 0.4380
vn 0.4723 0.8108 -0.3455
vn 0.6272 -0.1806 -0.7576
vn 0.9180 -0.3171 -0.2381
vn 0.8597 -0.2628 -0.4380
vn 0.8557 -0.5143 0.0570
vn 0.8597 -0.2628 0.4380
vn -0.3203 0.3703 0.8719
vn 0.9366 -0.2894 0.1973
vn 0.5891 -0.1669 0.7906
vn 0.8648 -0.2811 0.4160
vn 0.4055 -0.7482 0.5252
vn 0.2962 -0.5022 -0.8124
vn 0.4510 -0.8564 -0.2512
vn 0.4510 -0.8564 0.2512
vn 0.4055 -0.7482 -0.5252
vn 0.4633 -0.8862 0.0000
vn 0.0000 -0.8393 -0.5436
vn 0.0000 -0.5333 -0.8459
vn 0.0000 -1.0000 0.0000
vn 0.0000 -0.9663 -0.2572
vn 0.0000 -0.9663 0.2572
vn 0.0000 0.9879 -0.1552
vn 0.2151 0.6886 0.6925
vn -0.2962 -0.5022 -0.8124
vn 0.0000 -0.8633 0.5046
vn -0.5891 -0.1669 0.7906
vn -0.6272 -0.1806 -0.7576
vn -0.4055 -0.7482 -0.5252
vn -0.9180 -0.3171 -0.2381
vn -0.8597 -0.2628 -0.4380
vn -0.4510 -0.8564 0.2512
vn -0.8557 -0.5143 0.0570
vn -0.4633 -0.8862 0.0000
vn -0.8597 -0.2628 0.4380
vn -0.4055 -0.7482 0.5252
vn -0.4510 -0.8564 -0.2512
vn -0.9366 -0.2894 0.1973
vn -0.3203 -0.3703 0.8719
vn 0.3203 -0.3703 0.8719
vn 0.3203 0.3703 0.8719
vn 0.3314 0.9293 -0.1625
vn 0.7047 -0.4696 0.5318
vn -0.3314 0.9293 -0.1625
vn 0.0000 0.9361 -0.3516
vn 0.6687 0.6873 -0.2837
vn -0.6688 0.6875 -0.2828
vn -0.0380 -0.7460 0.6648
vn -0.9764 -0.1472 0.1578
vn 0.5581 -0.7604 0.3321
vn -0.0084 0.9983 0.0570
vn -0.0121 0.1543 0.9879
vn -0.6594 -0.7077 0.2536
vn 0.0000 0.9034 -0.4287
vn -0.2151 0.6886 0.6925
vn 0.4734 -0.6291 0.6164
vn 0.0000 -0.8200 0.5723
vn 0.0000 -0.8442 -0.5360
vn -0.4734 -0.6291 0.6164
s 1
f 5/1/1 13/2/2 6/3/3
f 4/4/4 10/5/5 11/6/6
f 2/7/7 8/8/8 9/9/9
f 6/3/3 14/10/10 7/11/11
f 5/1/1 11/6/6 12/12/12
f 3/13/13 9/9/9 10/5/5
f 1/14/14 22/15/15 8/8/8
f 37/16/16 7/11/11 14/10/10
f 14/10/10 88/17/17 85/18/18
f 12/12/12 94/19/19 90/20/20
f 10/5/5 82/21/21 78/22/22
f 45/23/23 77/24/24 22/15/15
f 37/25/16 85/26/18 21/27/25
f 12/12/12 88/17/17 13/2/2
f 78/22/22 63/28/26 10/5/5
f 9/9/9 86/29/27 82/21/21
f 16/30/28 25/31/29 17/32/30
f 15/33/31 22/34/15 23/35/32
f 37/25/16 21/27/25 29/36/33
f 20/37/34 27/38/35 28/39/36
f 17/32/30 26/40/37 18/41/38
f 15/33/31 24/42/39 16/30/28
f 21/27/25 28/39/36 29/36/33
f 18/41/38 27/38/35 19/43/40
f 37/25/16 29/36/33 36/44/41
f 28/39/36 34/45/42 35/46/43
f 25/31/29 33/47/44 26/40/37
f 23/35/32 31/48/45 24/42/39
f 28/39/36 36/44/41 29/36/33
f 4/4/4 5/1/1 59/49/46
f 25/31/29 31/48/45 32/50/47
f 23/35/32 22/34/15 30/51/48
f 31/48/45 38/52/49 39/53/50
f 35/46/43 44/54/51 36/44/41
f 33/47/44 42/55/52 34/45/42
f 32/50/47 39/53/50 40/56/53
f 30/51/48 22/34/15 38/52/49
f 37/25/16 36/44/41 44/54/51
f 34/45/42 43/57/54 35/46/43
f 33/47/44 40/56/53 41/58/55
f 44/54/51 83/59/56 80/60/57
f 42/55/52 89/61/58 87/62/59
f 39/53/50 92/63/60 40/56/53
f 15/33/31 93/64/61 73/65/62
f 37/16/16 80/66/57 51/67/63
f 43/57/54 87/62/59 83/59/56
f 40/56/53 89/61/58 41/58/55
f 38/52/49 96/68/64 39/53/50
f 45/23/23 22/15/15 52/69/65
f 37/16/16 51/67/63 58/70/66
f 50/71/67 56/72/68 57/73/69
f 47/74/70 55/75/71 48/76/72
f 45/23/23 53/77/73 46/78/74
f 51/67/63 57/73/69 58/70/66
f 49/79/75 55/75/71 56/72/68
f 46/78/74 54/80/76 47/74/70
f 56/72/68 6/3/3 57/73/69
f 54/80/76 4/4/4 55/75/71
f 52/69/65 2/7/7 53/77/73
f 57/73/69 7/11/11 58/70/66
f 62/81/77 5/1/1 56/72/68
f 53/77/73 3/13/13 54/80/76
f 52/69/65 22/15/15 1/14/14
f 37/16/16 58/70/66 7/11/11
f 59/49/46 55/75/71 4/4/4
f 61/82/78 26/83/37 33/84/44
f 56/72/68 55/75/71 62/81/77
f 60/85/79 34/45/42 27/38/35
f 27/38/35 26/40/37 60/85/79
f 33/47/44 34/45/42 61/86/78
f 17/32/30 66/87/80 65/88/81
f 10/5/5 64/89/82 11/6/6
f 94/90/19 66/87/80 18/41/38
f 91/91/83 72/92/84 66/87/80
f 63/28/26 70/93/85 64/89/82
f 95/94/86 69/95/87 63/28/26
f 65/88/81 72/92/84 71/96/88
f 67/97/89 71/96/88 72/92/84
f 67/98/89 69/95/87 68/99/90
f 71/96/88 68/100/90 84/101/91
f 70/93/85 67/98/89 81/102/92
f 74/103/93 77/104/24 93/105/61
f 76/106/94 77/107/24 97/108/95
f 38/52/49 77/109/24 76/110/94
f 79/111/96 75/112/97 45/23/23
f 15/33/31 77/113/24 22/34/15
f 8/8/8 77/104/24 74/103/93
f 93/114/61 77/115/24 73/116/62
f 89/117/58 47/74/70 48/76/72
f 92/118/60 46/78/74 47/74/70
f 80/60/57 37/25/16 44/54/51
f 94/90/19 19/43/40 90/119/20
f 88/120/17 19/43/40 20/37/34
f 86/121/27 16/30/28 82/122/21
f 94/19/19 64/89/82 91/123/83
f 89/117/58 49/79/75 87/124/59
f 81/125/92 67/97/89 72/92/84
f 87/124/59 50/71/67 83/126/56
f 79/127/96 76/110/94 97/128/95
f 93/105/61 8/8/8 74/103/93
f 97/129/95 77/24/24 75/112/97
f 96/130/64 45/23/23 46/78/74
f 85/18/18 37/16/16 14/10/10
f 78/131/22 65/88/81 95/132/86
f 88/120/17 21/27/25 85/26/18
f 82/122/21 17/32/30 78/131/22
f 91/123/83 70/93/85 81/102/92
f 84/101/91 65/88/81 71/96/88
f 83/126/56 51/67/63 80/66/57
f 84/133/91 68/99/90 69/95/87
f 5/1/1 12/12/12 13/2/2
f 4/4/4 3/13/13 10/5/5
f 2/7/7 1/14/14 8/8/8
f 6/3/3 13/2/2 14/10/10
f 5/1/1 4/4/4 11/6/6
f 3/13/13 2/7/7 9/9/9
f 14/10/10 13/2/2 88/17/17
f 12/12/12 11/6/6 94/19/19
f 10/5/5 9/9/9 82/21/21
f 45/23/23 75/112/97 77/24/24
f 12/12/12 90/20/20 88/17/17
f 78/22/22 95/94/86 63/28/26
f 9/9/9 8/8/8 86/29/27
f 16/30/28 24/42/39 25/31/29
f 20/37/34 19/43/40 27/38/35
f 17/32/30 25/31/29 26/40/37
f 15/33/31 23/35/32 24/42/39
f 21/27/25 20/37/34 28/39/36
f 18/41/38 26/40/37 27/38/35
f 28/39/36 27/38/35 34/45/42
f 25/31/29 32/50/47 33/47/44
f 23/35/32 30/51/48 31/48/45
f 28/39/36 35/46/43 36/44/41
f 25/31/29 24/42/39 31/48/45
f 31/48/45 30/51/48 38/52/49
f 35/46/43 43/57/54 44/54/51
f 33/47/44 41/58/55 42/55/52
f 32/50/47 31/48/45 39/53/50
f 34/45/42 42/55/52 43/57/54
f 33/47/44 32/50/47 40/56/53
f 44/54/51 43/57/54 83/59/56
f 42/55/52 41/58/55 89/61/58
f 39/53/50 96/68/64 92/63/60
f 15/33/31 86/121/27 93/64/61
f 43/57/54 42/55/52 87/62/59
f 40/56/53 92/63/60 89/61/58
f 38/52/49 79/127/96 96/68/64
f 50/71/67 49/79/75 56/72/68
f 47/74/70 54/80/76 55/75/71
f 45/23/23 52/69/65 53/77/73
f 51/67/63 50/71/67 57/73/69
f 49/79/75 48/76/72 55/75/71
f 46/78/74 53/77/73 54/80/76
f 56/72/68 5/1/1 6/3/3
f 54/80/76 3/13/13 4/4/4
f 52/69/65 1/14/14 2/7/7
f 57/73/69 6/3/3 7/11/11
f 62/81/77 59/49/46 5/1/1
f 53/77/73 2/7/7 3/13/13
f 59/49/46 62/81/77 55/75/71
f 61/82/78 60/134/79 26/83/37
f 60/85/79 61/86/78 34/45/42
f 17/32/30 18/41/38 66/87/80
f 10/5/5 63/28/26 64/89/82
f 94/90/19 91/91/83 66/87/80
f 91/91/83 81/125/92 72/92/84
f 63/28/26 69/95/87 70/93/85
f 95/94/86 84/133/91 69/95/87
f 65/88/81 66/87/80 72/92/84
f 67/97/89 68/100/90 71/96/88
f 67/98/89 70/93/85 69/95/87
f 38/52/49 22/34/15 77/109/24
f 79/111/96 97/129/95 75/112/97
f 15/33/31 73/65/62 77/113/24
f 8/8/8 22/15/15 77/104/24
f 89/117/58 92/118/60 47/74/70
f 92/118/60 96/130/64 46/78/74
f 94/90/19 18/41/38 19/43/40
f 88/120/17 90/119/20 19/43/40
f 86/121/27 15/33/31 16/30/28
f 94/19/19 11/6/6 64/89/82
f 89/117/58 48/76/72 49/79/75
f 87/124/59 49/79/75 50/71/67
f 79/127/96 38/52/49 76/110/94
f 93/105/61 86/29/27 8/8/8
f 96/130/64 79/111/96 45/23/23
f 78/131/22 17/32/30 65/88/81
f 88/120/17 20/37/34 21/27/25
f 82/122/21 16/30/28 17/32/30
f 91/123/83 64/89/82 70/93/85
f 84/101/91 95/132/86 65/88/81
f 83/126/56 50/71/67 51/67/63
